<?xml version="1.0" standalone="no"?>
<!DOCTYPE svg PUBLIC "-//W3C//DTD SVG 20010904//EN"
 "http://www.w3.org/TR/2001/REC-SVG-20010904/DTD/svg10.dtd">
<svg version="1.0" xmlns="http://www.w3.org/2000/svg"
 width="700.000000pt" height="700.000000pt" viewBox="0 0 700.000000 700.000000"
 preserveAspectRatio="xMidYMid meet">
<metadata>
Created by potrace 1.14, written by Peter Selinger 2001-2017
</metadata>
<g transform="translate(0.000000,700.000000) scale(0.100000,-0.100000)"
fill="#000000" stroke="none">
<path d="M3280 6994 c-19 -2 -84 -9 -145 -14 -1020 -99 -1976 -678 -2549
-1545 -318 -480 -504 -995 -568 -1570 -17 -154 -17 -585 0 -730 69 -588 254
-1099 567 -1570 126 -189 242 -332 410 -504 581 -595 1295 -943 2140 -1043
145 -17 576 -17 730 0 822 91 1556 447 2131 1034 203 206 348 390 487 618 274
449 433 916 499 1465 16 136 16 592 0 730 -86 725 -352 1347 -803 1885 -121
144 -350 368 -494 483 -509 408 -1117 662 -1775 743 -117 15 -553 27 -630 18z
m630 -229 c1067 -141 1978 -766 2488 -1707 189 -348 310 -728 368 -1153 22
-159 25 -617 6 -765 -90 -686 -330 -1247 -748 -1750 -88 -106 -321 -343 -375
-381 l-29 -20 0 178 0 178 78 40 c109 55 242 189 299 300 82 160 114 330 94
502 -13 107 -41 223 -53 223 -5 0 -114 -74 -242 -164 l-234 -164 -139 64 c-76
36 -141 68 -145 72 -4 4 -5 80 -1 169 l6 161 225 158 226 158 -36 30 c-52 45
-153 102 -238 135 -295 114 -603 70 -842 -120 -98 -77 -164 -163 -213 -276
-22 -48 -40 -89 -41 -91 -2 -3 -143 15 -192 24 -22 4 -23 7 -20 125 l3 120
125 52 c361 151 655 390 868 707 624 926 271 2157 -763 2661 -777 378 -1729
224 -2330 -376 -251 -250 -433 -575 -499 -890 -24 -111 -28 -120 -72 -133 -91
-28 -211 -147 -269 -267 -60 -126 -70 -173 -70 -345 0 -178 15 -243 88 -385
103 -199 309 -320 490 -288 34 6 69 14 78 17 11 5 34 -18 83 -84 198 -265 516
-505 836 -629 69 -27 133 -51 143 -55 16 -5 17 -18 15 -118 l-3 -112 -153 -18
c-528 -61 -1034 -236 -1314 -455 -112 -88 -217 -250 -283 -435 -15 -42 -39
-138 -54 -214 l-27 -137 -102 126 c-303 378 -507 781 -627 1242 -350 1349 192
2777 1350 3554 487 327 993 501 1615 555 103 9 511 -3 630 -19z m-260 -546
c513 -47 975 -297 1272 -688 26 -35 46 -66 44 -68 -2 -2 -16 1 -32 8 -97 37
-156 39 -1002 39 -529 0 -850 -4 -892 -11 -312 -50 -534 -292 -590 -644 -27
-167 -9 -389 42 -540 79 -229 248 -397 468 -462 43 -13 121 -17 370 -22 l315
-6 3 -85 c3 -91 17 -120 56 -120 48 1 66 37 66 134 l0 76 70 0 70 0 0 -89 c0
-82 2 -91 22 -105 30 -21 54 -20 78 4 17 17 20 33 20 105 l0 85 70 0 70 0 0
-85 c0 -72 3 -88 20 -105 24 -24 57 -26 82 -3 15 13 18 32 18 105 l0 88 239 0
c176 0 259 4 313 15 78 17 202 70 255 111 18 14 33 21 33 17 0 -4 -22 -52 -49
-105 -62 -123 -144 -247 -213 -320 -49 -53 -62 -61 -194 -112 -830 -324 -1617
-312 -2131 33 -157 105 -305 249 -402 389 l-23 33 21 82 c42 171 37 324 -18
485 -38 108 -82 181 -160 261 l-63 66 7 60 c22 201 97 459 201 690 54 122 63
135 139 210 213 210 542 379 865 444 193 39 350 48 540 30z m-335 -1348 c87
-40 136 -116 136 -213 1 -176 -182 -289 -339 -209 -168 87 -171 329 -4 416 59
30 148 33 207 6z m1371 0 c118 -54 168 -204 107 -321 -54 -101 -165 -148 -274
-117 -96 28 -157 104 -166 206 -9 98 50 197 141 237 45 19 143 17 192 -5z
m-3037 -306 c78 -40 149 -157 173 -285 13 -71 5 -204 -16 -254 -16 -39 -16
-39 -62 -32 -44 6 -124 42 -124 57 0 3 7 26 15 49 18 51 19 118 3 171 -13 45
-69 115 -98 124 -27 9 -25 38 6 105 40 87 50 93 103 65z m3624 -1699 c32 -7
60 -16 62 -18 3 -3 -56 -47 -130 -98 l-135 -94 0 -101 c0 -55 -3 -183 -7 -285
l-6 -185 254 -117 c140 -65 259 -119 265 -120 7 -2 77 43 158 99 160 112 170
113 120 7 -35 -74 -123 -166 -203 -214 -84 -50 -225 -97 -343 -114 -87 -14
-96 -13 -137 5 -77 34 -127 86 -249 257 -176 248 -209 298 -224 340 -9 25 -13
90 -13 202 0 199 14 259 74 319 44 44 140 94 221 115 70 19 218 20 293 2z
m-1333 -165 l0 -49 -48 -16 c-89 -30 -196 -46 -349 -53 l-153 -6 0 67 0 67 44
-6 c50 -8 299 10 401 29 111 21 105 23 105 -33z m-16 -268 c-48 -35 -398 -81
-501 -66 -33 5 -33 6 -33 59 l0 54 128 0 c125 0 269 17 367 43 l50 13 3 -45
c2 -33 -1 -49 -14 -58z m646 -256 c12 -31 43 -89 69 -129 60 -92 277 -396 303
-424 l19 -21 -53 -6 c-29 -4 -70 -7 -90 -7 -34 0 -38 3 -38 26 0 16 -37 79
-102 172 -117 168 -138 192 -169 192 -31 0 -69 -38 -69 -68 0 -15 39 -81 98
-166 54 -77 102 -147 106 -153 5 -10 -8 -13 -53 -13 l-60 0 -107 152 -107 153
15 40 c9 22 58 139 109 260 l94 220 7 -86 c4 -48 17 -112 28 -142z m-632 106
c-3 -32 -9 -41 -43 -60 -67 -37 -167 -55 -342 -61 l-163 -5 0 52 0 51 95 0
c121 0 281 17 365 40 94 25 92 25 88 -17z m252 -142 c0 -19 -62 -157 -78 -173
-9 -9 -458 -325 -997 -703 l-980 -686 -5 423 c-6 408 -7 425 -28 485 -13 34
-38 86 -57 117 l-33 56 56 34 c217 130 545 238 905 296 125 20 125 20 199 1
97 -27 219 -41 348 -41 269 0 487 61 573 161 24 28 40 38 65 38 17 1 32 -3 32
-8z m113 -479 c42 -60 77 -114 79 -120 2 -6 -26 -31 -60 -56 l-64 -44 -40 14
c-113 40 -235 -14 -287 -126 -15 -33 -31 -55 -38 -53 -7 3 -37 -1 -66 -7 -77
-16 -131 -59 -165 -131 -27 -58 -27 -59 -70 -59 -55 0 -108 -22 -150 -63 -45
-43 -64 -82 -71 -147 l-6 -54 -353 -248 c-195 -136 -358 -248 -363 -248 -30 0
-349 114 -342 121 24 24 1908 1337 1913 1334 3 -2 41 -53 83 -113z m-115 -345
c12 -7 72 -82 132 -167 123 -171 130 -194 84 -249 -20 -24 -34 -31 -63 -31
-20 0 -46 7 -58 15 -12 8 -69 82 -127 165 -121 170 -130 198 -77 251 32 32 70
37 109 16z m-255 -205 c19 -17 197 -263 215 -299 28 -53 3 -114 -53 -133 -60
-20 -88 3 -207 172 -112 157 -125 188 -97 239 24 46 102 57 142 21z m-283
-182 c10 -5 68 -80 129 -166 120 -169 130 -197 91 -247 -24 -30 -74 -43 -112
-28 -23 8 -115 126 -222 285 -35 52 -35 104 0 140 28 28 79 35 114 16z"/>
</g>
</svg>
