<?xml version="1.0" encoding="UTF-8"?><svg id="b" xmlns="http://www.w3.org/2000/svg" viewBox="0 0 2000 2000"><g id="c"><path d="M1000,1970c-130.96,0-257.99-25.64-377.56-76.21-115.5-48.85-219.24-118.8-308.33-207.89s-159.04-192.83-207.89-308.33c-50.57-119.57-76.21-246.6-76.21-377.56s25.64-257.99,76.21-377.56c48.85-115.5,118.8-219.24,207.89-308.34,89.09-89.09,192.83-159.04,308.33-207.89,119.57-50.57,246.6-76.21,377.56-76.21s257.99,25.64,377.56,76.21c115.5,48.85,219.24,118.8,308.33,207.89,89.09,89.09,159.04,192.83,207.89,308.34,50.57,119.57,76.21,246.6,76.21,377.56s-25.64,257.99-76.21,377.56c-48.85,115.5-118.8,219.24-207.89,308.33s-192.83,159.04-308.33,207.89c-119.57,50.57-246.6,76.21-377.56,76.21Z" style="fill:#fff; stroke-width:0px;"/><path d="M672.72,295.69s-283.43,381.45-16.31,654.5,726.35,47.07,726.35,47.07l-66.2,125.01-385.54,83.01-370.72-189.41-16.25-166.73-21-161-51.09-77.35,60.76-196.18,140.02-118.9Z" style="fill:#65748b; stroke-width:0px;"/><polygon points="737.81 1922.63 1268.22 1550.79 1308.52 1603.8 1239.17 1645.52 1181.92 1614.15 984.74 1752.47 992.67 1814.95 813.11 1941.89 737.81 1922.63" style="fill:#65748b; stroke-width:0px;"/><path d="M1454.94,1539.61s197.4,6,226.9-126.22c38.11-170.76,12.21,99.69,12.21,99.69l-110.2,90.72-270.26,15.79-45.38-68.8,186.72-11.17Z" style="fill:#65748b; stroke-width:0px;"/><polygon points="1151.86 1383.03 1232.91 1389.78 1260.85 1299.16 1156.21 1299.16 1151.86 1383.03" style="fill:#65748b; stroke-width:0px;"/><path d="M939.17,1421.49s-285.31,15.85-416.12,146.64-116.28-133.63-116.28-133.63l237.8-122.35,207.62-12.99,15.65,83.87,71.34,38.46Z" style="fill:#65748b; stroke-width:0px;"/><polygon points="852.18 1939.93 1013.15 1825.74 1076.56 1898.62 1289.92 1737.89 1256.23 1654 1327.57 1603.8 1583.86 1603.8 1569.33 1799.98 1092.41 1973.71 852.18 1939.93" style="fill:#65748b; stroke-width:0px;"/><polygon points="968.75 1206.81 968.75 1411.58 852.18 1359.26 852.18 1176.35 968.75 1206.81" style="fill:#65748b; stroke-width:0px;"/><path d="M474.36,674.73s-50.2,27.74-42.2,112.95c4.07,43.42,54.42,93.14,111.89,61.43s-55.95,101.06-55.95,101.06l-95.74-25.76-46.48-124.6,33.69-111.7,94.79-13.38Z" style="fill:#65748b; stroke-width:0px;"/><path d="M1000,0C447.72,0,0,447.72,0,1000s447.72,1000,1000,1000,1000-447.72,1000-1000S1552.28,0,1000,0ZM522.97,809.22c0,.23-.01.47-.02.7-.04,1.3-.1,2.59-.18,3.87-.02.28-.03.55-.05.83-.08,1.25-.17,2.49-.28,3.72,0,.08-.01.15-.02.23-.11,1.29-.25,2.57-.39,3.85-.03.28-.06.56-.1.83-.15,1.26-.31,2.52-.49,3.76-.02.15-.05.3-.07.45-.17,1.15-.35,2.3-.55,3.44-.04.23-.08.46-.12.69-.21,1.22-.44,2.43-.68,3.64-.05.23-.09.46-.14.69-.23,1.14-.48,2.28-.74,3.4-.03.11-.05.22-.07.33-.28,1.2-.57,2.39-.88,3.57-.06.24-.13.48-.19.72-.31,1.18-.64,2.36-.98,3.52-.02.06-.04.13-.06.19-.33,1.12-.68,2.23-1.04,3.34-.06.2-.13.4-.19.6-.37,1.13-.76,2.25-1.15,3.35-.06.17-.12.33-.18.5-.38,1.05-.78,2.09-1.18,3.12-.04.11-.08.21-.12.32-.43,1.09-.88,2.17-1.34,3.23-.08.19-.16.37-.24.56-.94,2.15-1.93,4.26-2.97,6.3-.08.16-.16.32-.24.48-.52,1.01-1.05,2.01-1.6,2.99-.05.09-.11.19-.16.28-.53.95-1.07,1.88-1.62,2.8-.05.09-.11.18-.16.27-.58.96-1.17,1.9-1.77,2.82-.08.13-.17.26-.25.38-1.22,1.86-2.49,3.66-3.8,5.39-.09.12-.18.23-.26.35-.66.86-1.33,1.71-2.01,2.54-.02.03-.05.06-.07.09-.68.82-1.36,1.61-2.06,2.4-.06.07-.12.14-.18.2-.71.79-1.42,1.55-2.15,2.3-.08.08-.15.16-.23.23-1.47,1.5-2.99,2.93-4.54,4.27-.09.08-.18.16-.28.24-1.56,1.34-3.17,2.6-4.81,3.76-.07.05-.15.11-.22.16-.82.58-1.64,1.13-2.47,1.67-.07.04-.14.09-.2.13-.84.54-1.7,1.05-2.56,1.54-7.49,4.26-15.62,6.77-24.2,7.19-.86.04-1.72.06-2.58.06-40.69,0-75.6-47.58-78.57-107.97-2.79-56.5,23.36-104.6,59.9-113.83,1.62-.41,3.27-.74,4.93-1,.12-.02.24-.03.35-.05.66-.1,1.33-.18,2-.25.19-.02.38-.04.57-.06.79-.08,1.58-.14,2.38-.18.86-.04,1.72-.06,2.58-.06.64,0,1.27.01,1.9.03,2.53.09,5.04.37,7.51.82.62.11,1.24.24,1.85.37,35.68,7.81,64.61,52.02,67.31,106.75.07,1.37.11,2.73.15,4.08,0,.3.02.59.02.89.03,1.32.04,2.64.03,3.95,0,.21,0,.42,0,.63,0,1.2-.03,2.39-.07,3.58ZM619.07,791.84c-4.37-88.57-55.46-160.57-120.47-177.91,6.56-36.2,17.61-71.48,33.07-105.49,25.39-55.87,61.58-106.07,107.57-149.23,46.23-43.39,100.03-77.47,159.91-101.29,62.17-24.73,128.24-37.27,196.39-37.27s134.87,12.66,197.29,37.63c60.12,24.05,114.08,58.43,160.37,102.21,26.57,25.12,49.82,52.61,69.58,82.17-23.51-10.71-49.63-16.68-77.15-16.68h-443.23c-132.61,0-206.75,107.5-206.75,240.11h0c0,132.61,74.14,240.11,206.75,240.11h139.05v42.17c0,9.61,7.79,17.39,17.39,17.39h0c9.61,0,17.39-7.79,17.39-17.39v-42.17h40.51v42.17c0,9.61,7.79,17.39,17.39,17.39h0c9.61,0,17.39-7.79,17.39-17.39v-42.17h40.51v42.17c0,9.61,7.79,17.39,17.39,17.39s17.39-7.79,17.39-17.39v-42.17h118.79c46.57-1.37,89.23-17.12,121.9-45.42-2.22,5.52-4.54,11.02-6.99,16.48-25.18,56.29-61.3,106.92-107.35,150.47-46.29,43.77-100.24,78.16-160.37,102.21-62.43,24.97-128.81,37.63-197.29,37.63-101.12,0-198.64-28.01-282.03-80.99-40.05-25.45-76-56.13-106.84-91.2-13.99-15.91-26.82-32.61-38.44-49.99,33.7-36.26,53.87-92.02,50.84-153.53ZM1377.67,669.17c0,37.28-30.22,67.5-67.5,67.5s-67.5-30.22-67.5-67.5,30.22-67.5,67.5-67.5,67.5,30.22,67.5,67.5ZM987.18,669.17c0,37.28-30.22,67.5-67.5,67.5s-67.5-30.22-67.5-67.5,30.22-67.5,67.5-67.5,67.5,30.22,67.5,67.5ZM1124.8,1304.19c-19.33,8.11-54.94,18.13-115.21,20.05-68.49,2.19-108.59-11.73-128.16-21.65v-28.75c23.8,9.62,60.65,18.98,113.96,18.98,4.91,0,9.97-.08,15.16-.25,53.87-1.72,90.3-9.56,114.25-17.84v29.46ZM881.42,1335.5c23.8,9.62,60.65,18.98,113.96,18.98,4.91,0,9.97-.08,15.16-.25,53.87-1.72,90.3-9.56,114.25-17.84v21.77c-2.1,1.75-5.29,4.01-10.01,6.48-16.67,8.72-50.08,19-114.5,18.36-55.91-.54-86.26-10.13-101.88-18.08-9.97-5.07-14.83-9.92-16.99-12.63v-16.8ZM995.53,1227.55c44.48,0,87.75-4.88,129.26-14.08v29.06c-19.33,8.11-54.94,18.13-115.21,20.05-68.49,2.18-108.59-11.74-128.16-21.66v-24.32c36.85,7.16,75.01,10.94,114.11,10.94ZM822.15,1365.86c1.31,5.83,7.77,26.31,35.71,44.8,31.51,20.85,79.24,31.73,141.85,32.34,2.03.02,4.04.03,6.04.03,33.68,0,63.17-2.78,88.23-8.3,18.13-4.09,35.26-9.94,48.61-16.92,29.25-15.3,38.1-33.24,40.12-38.38l2.08-5.29v-47.35c11.54.74,25.1,2.15,37.64,4.64l-44.56,105.27-568.32,398.1v-207.12c0-88.12-85.83-183.12-166.41-181.91,1.75-1.34,3.53-2.65,5.35-3.91,103.15-71.34,255.4-105.19,372.93-114.15v34.9l.73,3.25ZM1595.41,1473.94l86.44-60.55c-.51,9.44-1.67,18.82-3.5,28.07-8.87,44.81-33.25,81.96-68.65,104.59-4.88,3.12-9.89,5.83-14.92,8.19-12.65,5.94-26.86,7.78-40.58,5.13-40.77-7.87-97.33-25.79-121.09-60.52-12.68-18.55-23.67-33.82-34.31-48.59-14.08-19.56-28.65-39.79-47.4-68.05-21.29-32.08-16.81-92.79-9.81-133.08,3.04-17.52,12.88-33.16,27.54-43.23.09-.06.17-.12.26-.18,46.4-31.8,104.33-36.99,157.88-19.42l-77.39,54.21-4.83,164.15,150.36,69.27ZM1343.03,1440.95c8.27,11.81,15.86,22.35,23.31,32.7,10.49,14.57,21.34,29.64,33.74,47.79.25.36.49.71.74,1.07,16,22.83,40.18,39.36,65.83,51.31l-147.8,9.48-85.94-122.69,62.84-148.45c.04,38.95,7.51,69.88,22.32,92.2,9.18,13.83,17.36,25.75,24.95,36.6ZM656.41,1875.23l548.82-384.44,75.86,108.29-32.72,22.92-9.72-13.62c-21.63-30.29-63.88-37.34-94.17-15.71-15.04,10.74-24.35,26.57-27.26,43.49-17.69-2.87-35.43,1.28-50.02,11.69-15.05,10.75-24.36,26.59-27.27,43.52-17.69-2.88-35.46,1.26-50.07,11.69-30.29,21.63-37.34,63.88-15.71,94.17l8.02,11.24-162.96,114.15c-2.91-.57-5.82-1.13-8.72-1.73-52.47-10.74-104.19-26.08-154.08-45.67ZM1006.7,1773.99c-4.27-5.98-5.96-13.26-4.75-20.51s5.17-13.59,11.15-17.86c4.83-3.45,10.42-5.11,15.95-5.11,8.59,0,17.06,4,22.42,11.51l47.48,66.49,7.75,10.85c4.27,5.98,5.95,13.26,4.74,20.51-1.21,7.25-5.17,13.59-11.15,17.86-5.98,4.27-13.27,5.95-20.51,4.75-7.25-1.21-13.59-5.17-17.86-11.15l-55.22-77.34ZM1028.34,1873.13c-27.92,7.52-36.79,43.22-39.59,66.8-27.77-.33-55.5-1.87-83.06-4.62l111.36-78,11.3,15.82ZM1157.11,1807.28c-7.25-1.21-13.59-5.17-17.86-11.15h0s0,0,0,0l-7.75-10.85-47.47-66.48c-4.27-5.98-5.96-13.26-4.75-20.51s5.17-13.59,11.15-17.86c4.72-3.37,10.24-5.13,15.93-5.13,1.52,0,3.05.13,4.58.38,6.92,1.15,13,4.82,17.26,10.35.19.28.37.56.56.83l55.22,77.34c.2.28.42.55.62.83,3.84,5.81,5.32,12.75,4.16,19.65-1.21,7.25-5.17,13.59-11.15,17.86-5.98,4.27-13.27,5.95-20.51,4.75ZM1161.36,1663.58c-.2-.27-.41-.54-.61-.81-8.11-12.27-5.1-28.92,6.97-37.54,4.83-3.45,10.42-5.11,15.95-5.11,8.59,0,17.06,4,22.42,11.51l55.22,77.34c4.27,5.98,5.96,13.26,4.75,20.51s-5.17,13.59-11.15,17.86c-5.98,4.27-13.27,5.95-20.51,4.75-6.91-1.15-13-4.81-17.25-10.34-.19-.28-.37-.56-.57-.84l-55.22-77.33ZM1365.87,1866.15c-56.7,23.98-116.04,42.4-176.37,54.75-7.46,1.53-14.95,2.96-22.46,4.3-.17-54.58,115.62-148.83,115.62-148.83h-.02c12.15-10.31,20.21-24.41,22.86-40.31,2.97-17.79-1.17-35.66-11.65-50.34l-10.63-14.89,39.51-27.68,202.45-12.98c3.18,0,10.98-.18,21.73-1.4v135.79c-7.07,5.07-14.2,10.05-21.41,14.92-50.25,33.95-103.96,63.1-159.65,86.66ZM1866.15,1365.87c-23.55,55.69-52.71,109.4-86.66,159.65-33.64,49.79-72.27,96.61-114.82,139.16-18.48,18.48-37.77,36.22-57.75,53.13v-103.56c11.63-4.5,23.55-10.26,35.1-17.64,49.31-31.53,83.11-82.49,95.19-143.49,9.37-47.36,5.25-97.18-11.11-143.97l-51.57,36.12-.83.58-84.48,59.18-83.02-38.25,2.78-94.39,75.99-53.23,2.52-1.76,51.41-36.01c-33.62-28.69-73.12-48.96-115.64-58.78-66.89-15.45-133.58-3.5-187.77,33.64-57.25,39.24-74.43,81.63-78.11,92.69l-11.19,26.44c-21.57-5.55-44.64-7.8-61.37-8.71v-69.88c218.46-73.56,374.85-270.84,374.85-502.68,0-294.62-252.56-533.45-564.11-533.45-282.78,0-516.94,196.76-557.78,453.4-68.59,18.68-117.53,98.87-112.92,192.31,5.15,104.39,75.19,185.77,156.45,181.76,13.19-.65,25.86-3.52,37.82-8.31,69.73,103.76,176.31,183.19,302.33,221.83v65.91c-126.38,9.11-292.84,45.95-407.07,124.96-79.61,55.06-106.33,160.09-115.05,234.07-28.53-31.89-54.93-65.72-78.81-101.06-33.95-50.25-63.1-103.96-86.66-159.65-23.98-56.7-42.4-116.04-54.75-176.37-12.67-61.93-19.1-125.69-19.1-189.51s6.43-127.58,19.1-189.51c12.34-60.33,30.76-119.66,54.75-176.37,23.55-55.69,52.71-109.4,86.66-159.65,33.64-49.79,72.27-96.61,114.82-139.16,42.55-42.55,89.37-81.18,139.16-114.82,50.25-33.95,103.96-63.1,159.65-86.66,56.7-23.98,116.04-42.4,176.37-54.75,61.93-12.67,125.69-19.1,189.51-19.1s127.58,6.43,189.51,19.1c60.33,12.34,119.66,30.76,176.37,54.75,55.69,23.55,109.4,52.71,159.65,86.66,49.79,33.64,96.61,72.27,139.16,114.82,42.55,42.55,81.18,89.37,114.82,139.16,33.95,50.25,63.1,103.96,86.66,159.65,23.98,56.7,42.4,116.04,54.75,176.37,12.67,61.93,19.1,125.69,19.1,189.51s-6.43,127.58-19.1,189.51c-12.34,60.33-30.76,119.66-54.75,176.37Z" style="fill:#10182a; stroke-width:0px;"/><path d="M469.68,784.28c-.91-3.74-2.09-7.36-3.51-10.8-1.07-2.58-2.28-5.06-3.62-7.43-1.79-3.16-3.82-6.11-6.06-8.82-.45-.55-.92-1.08-1.38-1.6-.16-.17-.31-.34-.47-.51-.31-.34-.63-.67-.94-1-.19-.2-.38-.39-.57-.58-.29-.29-.58-.57-.87-.84-.21-.2-.42-.39-.63-.58-.28-.26-.56-.5-.84-.75-.22-.19-.44-.38-.66-.56-.28-.23-.56-.46-.84-.68-.23-.18-.45-.36-.68-.53-.28-.22-.57-.42-.86-.63-.23-.16-.45-.33-.68-.49-.48-.33-.96-.65-1.44-.95-.29-.18-.57-.34-.86-.51-.23-.13-.45-.27-.68-.4-.3-.17-.61-.33-.91-.48-.21-.11-.43-.22-.64-.33-.31-.15-.63-.3-.94-.44-.2-.09-.41-.18-.62-.27-.33-.14-.65-.27-.98-.4-.19-.07-.38-.14-.57-.21-.35-.13-.69-.25-1.04-.36-.15-.05-.3-.09-.45-.14-2.61-.81-5.26-1.23-7.9-1.23h0c-.37,0-.75,0-1.12.02-12.76.55-21.38,10.33-25.37,16.1-7.93,11.45-11.96,27.27-11.05,43.39.9,16.01,6.35,30.78,15.34,41.6,7.76,9.33,17.15,14.48,26.46,14.48.37,0,.75,0,1.12-.02,10.64-.46,18.39-7.33,22.99-12.95.07-.09.14-.17.21-.26.34-.42.66-.83.96-1.23.08-.11.16-.21.24-.32.35-.47.68-.92.97-1.35,2.97-4.3,5.4-9.2,7.22-14.51.61-1.77,1.15-3.58,1.62-5.43.94-3.7,1.61-7.55,1.98-11.47.37-3.93.46-7.94.23-11.97-.28-5-1.01-9.88-2.14-14.56Z" style="fill:#10182a; stroke-width:0px;"/><path d="M1276.58,1438.04c-8.87,6.21-11.02,18.44-4.81,27.31l59.36,84.74c6.21,8.87,18.44,11.02,27.31,4.81,8.87-6.21,11.02-18.44,4.81-27.31l-59.36-84.74c-6.21-8.87-18.44-11.02-27.31-4.81Z" style="fill:#10182a; stroke-width:0px;"/></g></svg>