<?xml version="1.0" encoding="UTF-8"?><svg id="b" xmlns="http://www.w3.org/2000/svg" viewBox="0 0 5439.33 340.68"><g id="c"><polygon points="360.29 253.7 125.25 10.02 0 10.02 0 330.66 125.25 330.66 125.25 167.1 285.57 330.66 435.87 330.66 596.19 166.28 596.19 330.66 721.44 330.66 721.44 10.02 596.19 10.02 360.29 253.7" style="fill:#10172a; stroke-width:0px;"/><polygon points="916.82 195.39 1227.44 195.39 1227.44 145.29 916.82 145.29 916.82 105.21 1296.58 105.21 1296.58 10.02 791.57 10.02 791.57 330.66 1297.58 330.66 1297.58 235.47 916.82 235.47 916.82 195.39" style="fill:#10172a; stroke-width:0px;"/><path d="M1496.99,127.76c12.35-11.35,31.89-19.62,58.62-24.8,26.72-5.17,61.45-7.77,104.21-7.77,36.4,0,65.29,2.34,86.67,7.01,21.37,4.68,37.4,11.11,48.1,19.29,10.69,8.19,18.04,17.62,22.04,28.31h130.26c-1.67-32.06-13.2-59.28-34.57-81.66-21.38-22.37-52.94-39.33-94.69-50.85-41.75-11.52-94.36-17.29-157.82-17.29-48.43,0-91.85,2.84-130.26,8.52-38.41,5.68-71.14,15.12-98.2,28.31-27.05,13.2-47.77,30.9-62.12,53.11-14.36,22.22-21.54,49.85-21.54,82.92s7.18,60.46,21.54,82.16c14.36,21.71,35.07,38.83,62.12,51.35,27.05,12.53,59.78,21.38,98.2,26.55,38.41,5.17,81.83,7.76,130.26,7.76,63.46,0,115.98-5.35,157.56-16.03s73.06-26.72,94.44-48.1c21.37-21.37,32.89-47.92,34.57-79.66h-130.26c-4.01,8.69-11.36,16.78-22.04,24.3-10.69,7.51-26.64,13.45-47.85,17.79-21.21,4.34-50.02,6.51-86.42,6.51-42.76,0-77.49-2.5-104.21-7.51-26.72-5.01-46.26-12.85-58.62-23.55-12.36-10.69-18.54-24.55-18.54-41.58,0-18.7,6.18-33.73,18.54-45.09Z" style="fill:#10172a; stroke-width:0px;"/><polygon points="2457.9 120.74 2137.26 120.74 2137.26 10.02 2012.01 10.02 2012.01 330.66 2137.26 330.66 2137.26 215.93 2457.9 215.93 2457.9 330.66 2583.15 330.66 2583.15 10.02 2457.9 10.02 2457.9 120.74" style="fill:#10172a; stroke-width:0px;"/><path d="M2838.16,10.02l-214.93,320.64h137.78l31.21-48.6h232.91l31.46,48.6h137.78L2977.44,10.02h-139.28ZM2840.48,206.91l67.72-105.45,68.27,105.45h-135.99Z" style="fill:#10172a; stroke-width:0px;"/><polygon points="3690.36 204.99 3359.7 10.02 3234.45 10.02 3234.45 330.66 3359.7 330.66 3359.7 139.2 3690.36 330.66 3815.61 330.66 3815.61 10.02 3690.36 10.02 3690.36 204.99" style="fill:#10172a; stroke-width:0px;"/><rect x="3893.25" y="10.02" width="125.25" height="320.64" style="fill:#10172a; stroke-width:0px;"/><path d="M4537.54,221.19c-10.69,7.51-26.64,13.45-47.85,17.79-21.21,4.34-50.02,6.51-86.42,6.51-42.76,0-77.49-2.5-104.21-7.51-26.72-5.01-46.26-12.85-58.62-23.55-12.36-10.69-18.54-24.55-18.54-41.58,0-18.7,6.18-33.73,18.54-45.09,12.35-11.35,31.89-19.62,58.62-24.8,26.72-5.17,61.45-7.77,104.21-7.77,36.4,0,65.29,2.34,86.67,7.01,21.37,4.68,37.4,11.11,48.1,19.29,10.69,8.19,18.04,17.62,22.04,28.31h130.26c-1.68-32.06-13.2-59.28-34.57-81.66-21.38-22.37-52.94-39.33-94.69-50.85-41.76-11.52-94.36-17.29-157.82-17.29-48.43,0-91.85,2.84-130.26,8.52-38.41,5.68-71.14,15.12-98.2,28.31-27.05,13.2-47.77,30.9-62.12,53.11-14.36,22.22-21.54,49.85-21.54,82.92s7.18,60.46,21.54,82.16c14.36,21.71,35.07,38.83,62.12,51.35,27.05,12.53,59.78,21.38,98.2,26.55,38.41,5.17,81.83,7.76,130.26,7.76,63.46,0,115.98-5.35,157.56-16.03,41.58-10.69,73.06-26.72,94.44-48.1,21.37-21.37,32.89-47.92,34.57-79.66h-130.26c-4.01,8.69-11.36,16.78-22.04,24.3Z" style="fill:#10172a; stroke-width:0px;"/><path d="M5042.66,23.02l199.34,294.64h-106.21l-27.62-42.66-3.84-5.93h-247.09l-3.84,5.97-27.37,42.62h-106.31l197.5-294.64h125.44M4888.8,219.91h183.7l-12.99-20.07-68.27-105.45-10.96-16.92-10.89,16.96-67.72,105.45-12.86,20.02M5049.56,10.02h-139.28l-214.93,320.64h137.78l31.21-48.6h232.91l31.46,48.6h137.78l-216.93-320.64h0ZM4912.6,206.91l67.72-105.45,68.27,105.45h-135.99Z" style="fill:#65758c; stroke-width:0px;"/><path d="M5426.33,23.02v294.64h-99.25V23.02h99.25M5439.33,10.02h-125.25v320.64h125.25V10.02h0Z" style="fill:#65758c; stroke-width:0px;"/></g></svg>